<?xml version="1.0" standalone="no"?>
<!DOCTYPE svg PUBLIC "-//W3C//DTD SVG 20010904//EN"
 "http://www.w3.org/TR/2001/REC-SVG-20010904/DTD/svg10.dtd">
<svg version="1.0" xmlns="http://www.w3.org/2000/svg"
 width="1024.000000pt" height="1024.000000pt" viewBox="0 0 1024.000000 1024.000000"
 preserveAspectRatio="xMidYMid meet">

<g transform="translate(0.000000,1024.000000) scale(0.100000,-0.100000)"
fill="#000000" stroke="none">
<path d="M0 5120 l0 -5120 5120 0 5120 0 0 5120 0 5120 -5120 0 -5120 0 0
-5120z m5614 4269 l26 -20 0 -263 c0 -252 -1 -264 -20 -281 -30 -27 -88 -25
-111 4 -17 21 -19 44 -19 273 0 260 3 282 43 298 35 14 52 12 81 -11z m-592
-76 c145 -142 348 -399 348 -441 0 -43 -56 -81 -99 -67 -10 3 -55 56 -102 117
-46 62 -141 171 -210 243 -70 71 -129 140 -133 151 -10 33 37 84 76 84 25 0
47 -16 120 -87z m323 -8 c47 -46 19 -118 -45 -118 -62 0 -93 75 -50 121 27 29
65 28 95 -3z m2193 -5 c28 -26 28 -67 0 -97 -27 -28 -48 -29 -82 -2 -32 25
-34 66 -6 97 26 28 60 28 88 2z m-1342 -13 c39 -34 34 -67 -22 -149 -27 -39
-87 -127 -134 -197 l-85 -126 -99 -3 -98 -3 32 58 c54 96 232 354 276 400 48
51 87 57 130 20z m-335 2 c31 -16 42 -55 24 -88 -23 -46 -71 -55 -105 -21 -27
27 -25 66 5 95 26 27 46 31 76 14z m-1374 -131 c116 -129 271 -311 287 -336 5
-9 -17 -12 -97 -12 l-104 0 -193 217 -193 218 69 22 c38 12 79 22 90 22 15 1
57 -38 141 -131z m3393 42 c27 -27 25 -56 -5 -85 -29 -30 -66 -32 -90 -5 -21
24 -24 72 -5 94 18 23 76 20 100 -4z m-3840 -10 c0 -5 -11 -33 -23 -62 -13
-30 -31 -76 -41 -104 l-17 -51 -97 -38 c-135 -53 -324 -143 -473 -225 -70 -39
-138 -70 -153 -70 -38 0 -86 49 -86 88 0 45 32 77 151 147 194 115 406 214
634 296 87 31 105 34 105 19z m2497 -21 c422 -149 744 -333 1034 -592 160
-142 175 -167 145 -226 -17 -32 -54 -51 -100 -51 -27 0 -48 13 -112 71 -207
186 -427 343 -613 438 -100 50 -309 138 -444 186 -48 17 -85 37 -97 52 -28 36
-26 85 6 122 34 40 66 40 181 0z m-3452 -104 c14 -13 25 -31 25 -40 0 -20 -36
-55 -57 -55 -49 0 -72 76 -31 104 30 21 35 20 63 -9z m1874 -60 c48 -25 55
-72 15 -111 -19 -20 -31 -24 -52 -20 -60 15 -80 79 -37 121 28 29 36 30 74 10z
m3650 -41 c19 -25 19 -45 -2 -71 -16 -21 -64 -15 -81 9 -21 30 -20 44 4 68 27
27 55 25 79 -6z m-6169 -39 c0 -6 7 -35 15 -63 15 -50 17 -52 69 -67 29 -9 61
-22 72 -30 18 -13 17 -15 -18 -29 -21 -9 -42 -16 -48 -16 -6 0 -24 -7 -40 -15
-23 -12 -31 -25 -40 -72 -21 -100 -43 -109 -60 -25 -19 90 -25 96 -128 122
-26 7 -42 16 -39 23 2 7 33 23 69 35 71 25 75 31 99 122 6 25 14 49 17 54 6
10 32 -22 32 -39z m5212 8 c37 -33 11 -103 -38 -103 -31 0 -54 26 -54 62 0 51
54 76 92 41z m-1394 -9 c45 -31 14 -114 -43 -114 -29 0 -65 32 -65 59 0 28 39
71 64 71 12 0 32 -7 44 -16z m1831 -178 c14 -64 21 -70 92 -95 74 -25 74 -43
2 -65 -71 -22 -80 -29 -88 -69 -15 -71 -26 -107 -35 -107 -5 0 -18 31 -30 69
-11 38 -26 73 -33 79 -6 6 -38 18 -70 27 -75 22 -74 43 3 67 63 20 85 42 94
94 4 20 12 48 17 63 10 24 12 24 23 9 7 -10 18 -42 25 -72z m-1484 -46 c181
-27 346 -111 486 -250 86 -86 102 -106 147 -200 87 -180 81 -109 88 -1225 4
-543 3 -1039 -1 -1102 l-7 -113 -94 0 -94 0 -2 1088 -3 1087 -23 65 c-81 225
-273 394 -502 442 -93 19 -2407 19 -2490 0 -272 -62 -471 -258 -524 -514 -14
-69 -16 -290 -16 -2100 0 -1357 4 -2044 11 -2087 34 -212 176 -405 364 -496
135 -65 151 -67 670 -75 302 -4 482 -10 503 -18 128 -43 234 -149 311 -308 60
-124 105 -188 155 -224 20 -14 36 -28 36 -32 0 -13 -62 -9 -125 7 -91 24 -156
72 -217 163 -76 111 -143 175 -214 203 -58 22 -68 23 -539 29 l-480 6 -73 27
c-87 31 -179 77 -241 120 -59 40 -158 140 -200 201 -46 66 -105 197 -127 281
-18 67 -19 155 -19 2205 0 2408 -8 2174 80 2355 113 234 350 410 620 460 89
17 2408 21 2520 5z m-3590 -144 c22 -75 35 -86 118 -107 66 -16 60 -38 -18
-64 -78 -26 -82 -29 -90 -68 -14 -69 -29 -107 -41 -107 -6 0 -19 30 -29 70 -9
38 -23 74 -30 80 -7 6 -42 19 -77 29 -84 24 -82 40 9 69 78 25 75 21 103 130
6 25 16 42 23 39 6 -2 20 -34 32 -71z m4825 -399 c-1 -516 -58 -771 -232
-1032 -39 -57 -106 -135 -118 -135 -12 0 -12 736 0 835 19 162 77 287 189 407
58 63 137 121 152 112 5 -3 9 -87 9 -187z m-1335 168 c225 -47 414 -227 457
-437 15 -72 3 -90 -54 -86 -39 3 -40 4 -67 74 -80 206 -239 319 -466 331 -56
3 -103 11 -107 17 -10 14 -10 100 -1 109 12 12 167 7 238 -8z m-4140 -35 c236
-63 437 -216 534 -408 l22 -43 -20 -57 c-20 -59 -35 -125 -47 -201 l-6 -44
-39 74 c-54 103 -155 226 -245 299 -243 195 -553 239 -845 120 -85 -34 -161
-79 -154 -89 13 -22 289 -144 520 -231 278 -104 412 -180 549 -310 63 -61 156
-175 156 -193 0 -4 -313 63 -525 113 -231 55 -419 139 -595 268 -99 72 -350
323 -350 350 0 24 62 81 171 158 154 108 317 181 459 204 41 6 82 13 90 15 42
11 252 -6 325 -25z m3281 -4 c25 -24 34 -43 34 -66 0 -23 -9 -41 -34 -66 l-34
-34 -316 0 c-348 0 -361 2 -391 60 -18 35 -19 51 -4 84 24 52 47 56 392 56
l319 0 34 -34z m536 17 c37 -33 13 -95 -37 -95 -49 0 -72 56 -38 94 20 22 51
23 75 1z m2453 -9 c166 -32 380 -147 530 -287 l70 -64 -44 -59 c-66 -88 -265
-283 -361 -354 -95 -69 -283 -164 -405 -205 -44 -14 -178 -53 -298 -86 -121
-33 -241 -68 -267 -78 l-48 -18 36 66 c250 460 495 673 842 731 72 12 256 8
294 -6 9 -3 16 -2 16 4 0 15 -138 78 -215 98 -93 24 -266 24 -355 1 -90 -24
-211 -86 -300 -154 -68 -52 -104 -87 -183 -178 l-26 -30 -1 90 c0 50 -7 124
-14 165 -13 68 -12 79 4 115 28 65 130 162 211 201 143 69 315 85 514 48z
m-5389 -136 c-4 -24 -9 -346 -12 -715 -3 -370 -7 -673 -9 -673 -7 0 -57 53
-99 104 -55 68 -127 210 -160 315 -86 275 -41 604 114 831 46 66 148 180 162
180 6 0 8 -16 4 -42z m1329 -133 c236 -41 442 -181 558 -376 44 -75 47 -112
12 -135 -38 -25 -66 -11 -108 55 -105 164 -259 274 -445 317 -103 24 -294 15
-393 -19 -151 -52 -269 -144 -355 -279 -53 -81 -81 -99 -120 -73 -23 15 -26
22 -21 56 11 83 155 264 267 334 187 117 389 157 605 120z m1689 -41 c122 -32
275 -127 346 -216 88 -111 130 -230 130 -370 0 -100 -17 -165 -73 -272 l-41
-78 37 -112 c20 -62 37 -117 37 -124 0 -26 -124 -2 -227 44 l-56 24 -51 -25
c-78 -37 -179 -58 -291 -58 -125 -1 -185 13 -303 69 -213 102 -351 313 -352
536 0 159 53 284 174 404 111 110 227 170 381 195 66 10 216 2 289 -17z m696
-265 c26 -47 -25 -100 -69 -72 -20 13 -26 60 -10 79 18 22 66 18 79 -7z
m-2356 -312 c34 -145 69 -186 176 -208 107 -22 142 -48 106 -78 -8 -7 -52 -21
-98 -32 -45 -11 -93 -26 -105 -35 -32 -20 -58 -76 -78 -166 -13 -60 -21 -79
-37 -84 -29 -9 -35 2 -53 84 -27 129 -68 182 -154 197 -89 15 -141 35 -141 54
0 28 18 38 110 62 47 12 95 29 107 36 29 19 59 82 78 168 17 73 26 85 54 78
12 -3 23 -26 35 -76z m-2839 -81 c11 -7 54 -62 95 -121 l75 -107 50 6 c326 39
479 20 690 -84 243 -120 394 -318 434 -569 4 -28 5 -51 1 -51 -4 0 -22 24 -40
53 -19 28 -82 100 -140 158 -200 203 -385 293 -620 306 -108 6 -275 -11 -286
-28 -13 -21 136 -175 237 -246 66 -45 168 -97 276 -140 38 -14 73 -29 78 -33
6 -5 55 -20 110 -35 232 -62 384 -178 471 -360 32 -65 34 -76 34 -177 l0 -107
-64 44 c-93 65 -193 110 -349 155 -169 49 -288 97 -381 151 -246 145 -411 324
-583 633 -31 56 -98 173 -149 262 -101 173 -113 215 -76 260 35 44 98 58 137
30z m3459 -57 c31 -25 33 -55 10 -167 -20 -97 -46 -159 -103 -246 -59 -89 -91
-114 -126 -98 -14 6 -30 23 -37 37 -10 22 -8 30 13 58 95 128 127 202 139 322
6 64 12 83 30 97 29 23 41 23 74 -3z m-1432 -6 c9 -10 21 -51 27 -90 6 -40 20
-97 31 -127 30 -78 110 -186 184 -248 36 -29 65 -60 65 -68 1 -19 -144 -291
-161 -301 -36 -23 -98 4 -98 42 0 10 25 67 55 126 l55 108 -74 77 c-55 57 -85
99 -115 160 -38 79 -71 202 -71 268 0 57 67 92 102 53z m5008 -23 c11 -11 20
-28 20 -38 0 -24 -36 -62 -58 -62 -49 0 -76 62 -42 98 26 27 54 28 80 2z m315
-35 c44 -43 27 -109 -31 -121 -41 -8 -84 27 -84 67 0 35 39 79 70 79 12 0 32
-11 45 -25z m-2165 -155 c6 -12 10 -167 10 -424 0 -404 0 -405 -22 -426 -28
-25 -52 -26 -78 0 -19 19 -20 33 -20 426 0 268 4 412 11 425 22 42 76 42 99
-1z m1590 -6 c83 -15 160 -34 160 -40 0 -2 -14 -26 -30 -54 -17 -28 -66 -125
-109 -215 -117 -242 -180 -328 -330 -447 -125 -100 -228 -144 -495 -212 -95
-25 -189 -51 -209 -59 -19 -9 -38 -13 -41 -9 -12 11 -6 104 9 131 19 37 123
116 200 152 33 16 103 40 155 54 205 55 275 77 314 97 40 21 40 22 16 29 -28
7 -218 1 -297 -10 -29 -5 -53 -5 -53 -2 0 9 135 139 200 193 65 54 180 125
276 170 l69 33 -45 3 c-105 8 -311 -43 -441 -109 -120 -60 -304 -222 -375
-329 -15 -22 -29 -38 -32 -36 -8 9 19 170 38 219 62 164 234 325 426 400 56
22 188 53 264 61 61 7 242 -4 330 -20z m-7080 -64 c10 -5 54 -56 98 -113 242
-313 527 -615 714 -755 103 -77 251 -172 268 -172 7 0 10 -128 10 -376 0 -297
-3 -374 -12 -368 -82 48 -438 294 -561 387 -381 289 -744 637 -821 785 -45 88
0 181 90 184 33 1 48 -11 247 -209 117 -116 235 -230 262 -255 179 -159 464
-380 522 -404 69 -29 122 21 110 107 -6 49 -20 64 -117 139 -290 223 -602 542
-844 863 -76 102 -85 141 -40 176 30 23 46 26 74 11z m7595 -122 c36 -73 65
-142 65 -153 0 -12 -21 -41 -47 -67 -80 -76 -254 -217 -318 -256 -33 -20 -72
-48 -86 -62 -87 -85 -401 -342 -500 -407 -32 -21 -45 -25 -66 -17 -14 5 -30
16 -36 25 -22 35 2 67 106 145 208 157 302 258 487 524 126 182 181 252 259
333 36 37 67 67 69 67 2 0 32 -60 67 -132z m185 -375 c34 -32 41 -72 21 -121
-9 -21 -73 -83 -180 -175 -468 -401 -792 -634 -1130 -810 l-115 -59 -23 68
c-13 37 -23 71 -23 75 0 4 46 35 103 70 372 228 713 490 1118 861 139 127 174
141 229 91z m-4847 -285 c22 -13 55 -42 71 -66 25 -35 31 -55 34 -110 5 -86
-23 -142 -92 -189 -42 -29 -57 -33 -110 -33 -108 1 -189 59 -216 156 -31 108
36 229 146 264 43 14 120 4 167 -22z m618 21 c172 -58 206 -288 57 -386 -57
-38 -157 -44 -216 -14 -113 58 -152 178 -94 291 30 59 57 84 118 105 48 17 91
19 135 4z m702 -21 c24 -13 56 -44 75 -72 27 -42 32 -57 32 -111 0 -78 -30
-138 -89 -180 -34 -24 -54 -30 -109 -33 -58 -3 -74 0 -122 25 -44 23 -59 39
-82 82 -37 71 -37 129 0 201 15 30 39 62 53 73 71 51 165 57 242 15z m622 21
c110 -30 182 -152 155 -261 -11 -43 -11 -45 48 -145 33 -55 70 -115 83 -133
24 -31 24 -32 4 -47 -48 -35 -193 15 -277 96 -49 48 -66 59 -115 69 -181 38
-240 266 -98 379 62 50 124 63 200 42z m-5210 -44 c14 -13 25 -31 25 -40 0
-20 -44 -65 -63 -65 -25 0 -67 40 -67 64 0 28 35 66 61 66 11 0 31 -11 44 -25z
m8004 -164 c30 -23 31 -64 1 -97 -35 -36 -71 -28 -98 23 -16 29 -15 36 9 67
24 30 54 33 88 7z m-7797 -30 c28 -25 33 -36 33 -74 0 -53 -22 -82 -73 -97
-67 -18 -132 30 -132 98 0 25 9 43 34 68 45 45 92 47 138 5z m6522 -108 c-20
-63 -94 -181 -143 -227 l-31 -30 -33 31 c-17 17 -60 49 -95 71 l-63 41 64 35
c35 20 112 58 173 86 60 28 116 54 124 59 23 13 24 -3 4 -66z m1509 24 c18
-36 18 -38 -2 -80 -57 -118 -206 -225 -546 -392 -392 -193 -779 -350 -932
-378 l-33 -6 0 54 c0 53 1 55 43 82 38 25 174 88 562 263 234 105 526 253 605
307 41 28 107 83 147 123 64 63 76 71 105 68 27 -2 36 -10 51 -41z m-395 -43
c27 -19 28 -55 3 -78 -26 -24 -62 -17 -80 15 -13 24 -13 29 2 53 20 30 43 33
75 10z m-7936 -31 c30 -35 31 -61 3 -88 -32 -33 -70 -30 -98 6 -20 28 -17 57
9 84 21 20 67 19 86 -2z m1816 -28 c34 -8 86 -27 114 -41 69 -35 168 -135 201
-204 56 -114 57 -129 57 -945 0 -424 5 -791 10 -844 36 -341 242 -627 562
-781 213 -102 223 -104 723 -110 l430 -5 85 -49 c47 -27 159 -95 250 -151 91
-56 219 -133 285 -172 66 -38 194 -113 285 -167 230 -135 371 -204 455 -221
102 -21 1693 -26 1775 -6 204 50 351 206 382 405 17 111 3 183 -76 379 -37 92
-78 202 -92 244 -25 76 -94 335 -94 353 0 11 4 10 299 -94 406 -144 635 -228
658 -243 26 -17 46 -72 37 -99 -14 -39 -46 -64 -83 -64 -20 0 -170 50 -348
115 -172 63 -320 115 -327 115 -17 0 11 -74 79 -210 116 -231 146 -375 110
-528 -35 -146 -86 -205 -417 -476 -112 -91 -252 -209 -313 -262 -60 -52 -143
-117 -183 -144 -134 -91 -49 -84 -1141 -88 -608 -2 -983 1 -1017 7 -30 6 -84
22 -121 37 -60 24 -418 228 -958 546 -234 138 -313 185 -590 345 -225 131
-339 198 -675 396 -239 141 -314 167 -486 167 -60 0 -138 -6 -172 -14 -46 -9
-65 -10 -68 -2 -35 99 -38 140 -41 649 -5 624 -12 577 157 1122 114 369 110
339 110 723 l0 332 38 0 c20 0 65 -7 100 -15z m4521 -164 c120 -37 214 -119
272 -236 145 -295 -75 -645 -406 -645 -232 0 -419 157 -457 383 -28 172 71
383 217 459 113 60 259 75 374 39z m-6089 -26 c165 -25 357 -90 628 -214 193
-88 412 -206 569 -307 l51 -33 -19 -62 c-11 -35 -21 -64 -23 -66 -2 -2 -107
46 -235 107 -414 198 -592 271 -833 344 -173 52 -251 62 -375 47 -93 -12 -106
-11 -129 4 -67 44 -43 137 44 166 89 29 193 34 322 14z m3100 -76 c207 -33
364 -198 377 -400 16 -229 -131 -414 -368 -463 -36 -7 -65 -19 -70 -28 -13
-24 -158 -131 -212 -157 -26 -12 -51 -20 -57 -16 -6 4 -10 56 -10 131 l0 126
-59 58 c-170 168 -181 426 -24 600 77 86 156 131 263 150 65 11 87 11 160 -1z
m5021 -62 c33 -25 38 -52 32 -155 -6 -95 -4 -104 21 -155 14 -30 42 -67 61
-82 56 -42 70 -69 55 -105 -24 -58 -81 -66 -151 -22 -104 66 -159 169 -167
312 -5 99 9 162 43 196 27 26 79 32 106 11z m-279 -138 c18 -24 18 -29 5 -61
-9 -22 -32 -46 -65 -67 -47 -30 -92 -51 -387 -182 -125 -55 -167 -61 -190 -25
-17 25 -9 66 16 83 7 4 132 70 278 145 285 146 309 154 343 107z m-7827 -118
c490 -177 1135 -444 1135 -470 0 -27 -34 -123 -46 -128 -6 -2 -168 59 -360
136 -192 76 -448 176 -569 221 -251 94 -268 102 -289 132 -24 34 -19 66 13 99
34 34 48 35 116 10z m3916 -2 c157 -47 202 -247 82 -361 -134 -128 -364 -31
-363 154 1 150 136 250 281 207z m660 -23 c118 -78 133 -246 30 -339 -50 -45
-100 -61 -167 -54 -101 10 -175 75 -192 167 -21 116 38 216 146 251 49 16 140
3 183 -25z m564 15 c168 -76 176 -304 14 -385 -88 -44 -185 -30 -251 36 -85
85 -83 225 4 309 60 57 159 74 233 40z m-5344 -267 c214 -83 229 -93 229 -151
0 -47 -54 -103 -99 -103 -42 0 -327 108 -362 137 -36 31 -46 80 -25 121 35 68
74 68 257 -4z m7128 -25 c113 -26 248 -121 311 -219 26 -40 37 -50 60 -50 22
0 34 10 63 55 69 103 183 170 312 182 216 20 436 -150 489 -377 10 -40 16
-113 16 -189 l0 -124 -787 6 c-434 4 -878 7 -987 7 l-199 0 6 83 c21 287 217
557 454 622 58 16 201 18 262 4z m-6749 -228 c11 -38 26 -73 33 -79 6 -5 36
-17 65 -26 28 -10 52 -23 52 -31 0 -7 -30 -23 -67 -36 l-67 -24 -17 -68 c-9
-38 -20 -71 -22 -74 -12 -12 -25 10 -42 73 -17 62 -20 67 -59 84 -23 9 -56 21
-74 25 -51 11 -38 31 33 55 73 24 89 41 105 114 19 88 30 85 60 -13z m415 -1
c48 -53 -15 -142 -77 -109 -30 15 -38 28 -38 59 0 63 74 95 115 50z m5433
-105 c6 -6 2 -1033 -4 -1123 -4 -51 -11 -95 -17 -99 -16 -10 -72 64 -119 156
l-43 84 -3 484 c-2 267 -1 490 1 496 3 8 32 11 93 8 49 -1 90 -4 92 -6z
m-1808 -112 c73 -29 117 -89 381 -511 47 -75 220 -351 384 -612 529 -843 488
-770 488 -851 0 -106 -63 -191 -167 -225 -87 -29 -212 3 -282 73 -45 45 -118
162 -444 713 -194 328 -276 464 -340 565 -84 133 -112 185 -97 185 6 0 34 -7
61 -15 107 -32 166 -12 166 56 0 59 -28 81 -130 103 -122 25 -218 74 -274 138
-96 110 -101 234 -14 333 63 72 166 90 268 48z m-4402 -79 c26 -99 29 -102 93
-120 91 -25 92 -37 7 -71 -56 -23 -74 -35 -79 -54 -22 -79 -35 -114 -44 -112
-5 1 -18 29 -27 63 -21 77 -28 85 -86 100 -26 7 -55 17 -65 22 -28 14 -4 35
58 54 30 8 58 20 63 27 6 7 18 43 28 80 9 39 21 66 28 64 6 -2 17 -26 24 -53z
m1155 7 c31 -12 57 -26 57 -31 0 -4 -9 -61 -20 -125 -17 -102 -20 -164 -20
-473 l-1 -357 -368 -372 c-203 -204 -378 -376 -389 -382 -30 -16 -49 -14 -72
9 -42 42 -31 60 162 258 99 103 208 219 241 257 33 39 124 136 201 218 78 81
143 152 144 157 3 7 -189 10 -553 10 l-558 0 5 84 c4 72 10 96 41 160 56 113
140 178 264 205 29 6 72 8 97 5 l44 -6 16 50 c52 156 198 292 371 344 85 25
257 20 338 -11z m4143 -89 c67 -34 71 -39 351 -472 55 -85 210 -326 345 -535
135 -209 289 -447 342 -529 117 -178 126 -197 126 -278 0 -52 -6 -73 -30 -115
-34 -60 -106 -108 -175 -118 -65 -10 -172 20 -230 63 -61 46 -61 46 -643 992
-80 129 -163 264 -184 298 -22 35 -38 66 -36 67 2 2 21 0 43 -6 46 -11 156
-13 185 -4 27 9 53 61 46 91 -9 36 -46 54 -132 64 -215 25 -344 133 -346 290
-2 91 55 175 138 206 52 19 148 12 200 -14z m-1764 -16 c84 -20 198 -72 276
-124 104 -71 220 -212 267 -325 15 -36 15 -38 -9 -62 -38 -38 -68 -33 -96 18
-149 268 -444 418 -743 377 -51 -7 -126 -23 -167 -36 -92 -29 -105 -29 -130
-4 -29 29 -25 64 9 93 29 24 148 62 246 78 74 12 270 3 347 -15z m4789 -285
c16 -16 29 -37 29 -46 0 -29 -28 -71 -55 -83 -30 -14 -452 -16 -945 -5 -301 6
-302 6 -331 31 -43 36 -36 102 14 122 12 5 300 9 640 9 l619 1 29 -29z m-1618
-5 c89 -32 148 -110 162 -216 23 -174 105 -520 177 -740 17 -52 58 -158 91
-235 58 -133 60 -144 61 -225 1 -74 -3 -93 -27 -142 -33 -67 -90 -121 -164
-155 -59 -27 -102 -30 -342 -25 l-124 2 20 23 c36 38 72 123 84 194 14 88 1
160 -93 500 -39 142 -73 268 -75 280 -5 23 -5 22 61 -7 123 -56 236 -36 236
41 0 44 -35 73 -114 93 -208 52 -283 148 -274 349 5 103 23 150 80 203 72 69
157 90 241 60z m1094 -290 c45 -14 53 -85 14 -120 -16 -14 -58 -16 -377 -14
l-359 3 -12 60 c-7 33 -11 65 -9 70 4 11 710 11 743 1z m-3679 -18 c28 -28 0
-88 -43 -88 -43 0 -60 47 -28 82 18 21 53 24 71 6z m150 -140 c44 -66 120
-201 122 -218 6 -40 -23 -67 -60 -55 -18 6 -118 158 -156 237 -17 36 -17 38 1
58 30 33 60 25 93 -22z m3859 -10 c88 -61 57 -192 -51 -212 -71 -14 -136 41
-136 114 0 98 105 153 187 98z m-7440 -150 c30 -28 29 -63 -2 -93 l-24 -25
-285 0 -284 0 -31 26 c-25 21 -51 74 -51 107 0 4 147 7 327 7 322 0 327 0 350
-22z m483 -325 l-1 -108 -289 -292 c-158 -161 -300 -297 -315 -303 -34 -13
-82 11 -91 45 -16 62 -15 63 431 513 137 138 253 252 257 252 5 0 8 -48 8
-107z m-745 41 c8 -4 22 -19 31 -35 13 -26 13 -32 0 -58 -25 -47 -74 -55 -113
-19 -61 57 2 142 82 112z m-217 -70 c27 -19 28 -38 2 -64 -25 -25 -35 -25 -61
1 -14 14 -18 27 -13 42 12 39 36 46 72 21z m4367 10 c24 -9 44 -55 38 -87 -6
-32 -46 -67 -78 -67 -12 0 -34 9 -49 21 -33 26 -37 88 -6 119 20 20 63 26 95
14z m-4245 -144 c11 -11 20 -30 20 -42 0 -26 -27 -58 -49 -58 -28 0 -61 30
-61 56 0 27 32 64 55 64 8 0 24 -9 35 -20z m7434 -61 c48 -38 20 -109 -43
-109 -59 0 -83 69 -39 110 28 25 48 25 82 -1z m-5938 -59 c48 -23 92 -56 145
-109 119 -120 163 -238 103 -277 -40 -27 -73 -9 -107 56 -61 118 -138 169
-269 178 -73 5 -86 8 -110 33 -46 45 -34 110 27 147 37 23 135 10 211 -28z
m-623 -31 c12 -7 47 -35 77 -63 30 -28 93 -85 140 -126 134 -118 170 -156 170
-178 0 -22 -43 -62 -66 -62 -14 0 -230 186 -341 294 -70 67 -81 102 -41 130
27 19 33 19 61 5z m-96 -268 c65 -56 243 -236 309 -312 81 -92 210 -283 239
-352 22 -52 -1 -96 -51 -97 -27 0 -50 27 -118 137 -102 166 -175 255 -357 435
-98 98 -179 185 -179 195 0 26 31 53 61 53 20 0 48 -17 96 -59z m6668 4 c32
-31 32 -59 -1 -91 -19 -20 -31 -24 -52 -19 -38 9 -55 29 -55 64 0 65 63 92
108 46z m-5500 -60 c14 -13 25 -31 25 -40 0 -19 -44 -65 -62 -65 -30 0 -58 31
-58 65 0 24 7 39 22 49 31 22 45 20 73 -9z m-1382 -80 c86 -36 132 -101 172
-245 77 -270 186 -406 508 -633 199 -141 214 -160 166 -221 -35 -44 -76 -36
-182 35 -250 167 -415 316 -615 556 -56 67 -135 149 -176 183 -91 75 -121 128
-113 197 12 112 129 174 240 128z m1010 -39 c18 -7 47 -30 65 -50 28 -32 32
-44 32 -93 0 -97 -62 -163 -154 -163 -54 0 -89 16 -130 59 -52 54 -47 161 10
213 53 47 117 60 177 34z m756 -36 c136 -73 250 -238 273 -395 19 -134 -10
-205 -86 -205 -61 0 -87 33 -102 130 -16 103 -47 165 -101 206 -35 27 -51 32
-122 37 -94 7 -115 16 -141 60 -41 67 -19 142 54 189 48 30 145 21 225 -22z
m4839 -176 c32 -22 30 -76 -4 -103 -34 -27 -52 -26 -81 1 -63 59 14 152 85
102z m-4361 -58 c32 -18 110 -64 173 -101 267 -156 309 -180 385 -223 44 -24
166 -95 270 -156 194 -115 325 -177 405 -195 25 -5 418 -12 904 -16 794 -7
857 -9 839 -24 -12 -9 -47 -38 -78 -66 l-57 -49 -762 -4 c-540 -3 -778 0 -819
8 -31 6 -103 34 -160 62 -95 48 -145 75 -337 183 -41 24 -190 107 -330 185
-140 79 -308 174 -372 212 -105 62 -118 73 -118 98 0 15 -3 48 -6 74 -4 25 -4
46 -1 46 3 0 31 -15 64 -34z m-867 -56 c82 -42 111 -130 70 -215 -51 -105
-211 -115 -275 -16 -13 20 -27 52 -30 72 -12 65 38 147 105 172 32 12 93 6
130 -13z m4951 -121 c27 -14 41 -53 29 -83 -5 -13 -48 -57 -96 -97 -47 -41
-128 -109 -178 -152 -136 -117 -362 -285 -431 -319 -33 -17 -89 -50 -125 -73
-264 -170 -650 -337 -957 -414 -96 -25 -108 -26 -68 -5 271 141 486 284 771
511 l142 112 68 6 c91 9 163 29 246 71 71 36 242 173 393 315 153 144 164 151
206 128z m-4047 -186 c55 -29 166 -90 621 -341 160 -88 382 -208 495 -267 600
-315 650 -345 650 -399 0 -14 -12 -38 -26 -55 -39 -47 -76 -42 -208 27 -336
178 -736 394 -916 497 -113 64 -232 130 -266 146 -60 29 -61 29 -112 14 -116
-35 -225 -194 -245 -360 -10 -81 -1 -219 19 -294 6 -21 4 -23 -17 -16 -47 13
-105 62 -137 115 -48 81 -66 150 -66 260 0 110 23 191 84 304 61 114 72 159
68 286 -2 60 -1 110 1 110 2 0 26 -12 55 -27z m-1193 -16 c81 -43 109 -129 68
-213 -28 -58 -72 -84 -141 -84 -170 0 -227 222 -78 301 47 25 98 24 151 -4z
m632 9 c72 -30 116 -108 103 -181 -5 -23 -22 -53 -45 -78 -36 -38 -43 -41
-102 -45 -55 -3 -69 0 -98 20 -51 34 -73 71 -78 125 -10 116 112 205 220 159z
m-228 -385 c95 -42 209 -180 245 -298 27 -88 26 -125 -6 -162 -19 -24 -34 -31
-60 -31 -45 0 -65 22 -98 106 -42 112 -94 163 -181 179 -57 10 -92 31 -110 65
-22 43 -19 84 11 119 44 53 112 60 199 22z m-415 -91 c41 -41 13 -110 -45
-110 -58 0 -86 69 -45 110 11 11 31 20 45 20 14 0 34 -9 45 -20z m1622 -69
c40 -27 125 -95 188 -151 117 -104 335 -292 449 -387 l63 -53 -119 0 c-135 0
-144 3 -236 82 -271 234 -495 436 -514 464 -13 20 -12 26 1 52 30 58 73 56
168 -7z m2021 -103 c35 -41 10 -92 -56 -117 -18 -7 -136 -11 -314 -11 -317 0
-340 4 -364 62 -10 26 -10 35 2 57 l15 26 304 5 c363 6 389 5 413 -22z m-2085
-217 c67 -64 125 -127 129 -139 8 -34 -26 -76 -64 -80 -24 -2 -43 7 -89 46
-89 74 -192 186 -199 214 -12 48 33 94 80 81 11 -3 75 -58 143 -122z"/>
<path d="M5844 7686 c-43 -19 -64 -53 -64 -104 0 -65 43 -100 115 -92 96 10
124 125 45 181 -37 26 -61 30 -96 15z"/>
<path d="M6217 7664 c-29 -34 -37 -67 -26 -109 13 -45 43 -65 97 -65 35 0 49
6 73 29 66 66 20 171 -75 171 -37 0 -51 -5 -69 -26z"/>
<path d="M5900 7318 c0 -6 10 -32 21 -56 61 -126 245 -136 314 -18 14 24 25
52 25 64 0 22 -2 22 -180 22 -132 0 -180 -3 -180 -12z"/>
<path d="M7106 5314 l-110 -105 117 -117 117 -117 112 112 113 113 -110 110
c-60 60 -114 110 -120 110 -5 -1 -59 -48 -119 -106z"/>
<path d="M4239 5191 c-107 -84 -12 -250 114 -198 69 29 89 122 39 178 -38 42
-113 52 -153 20z"/>
<path d="M8955 4596 c-49 -22 -70 -53 -70 -103 0 -38 5 -49 33 -74 47 -43 102
-41 148 5 38 38 43 69 19 121 -24 50 -81 72 -130 51z"/>
</g>
</svg>
